<mxfile host="app.diagrams.net" modified="2024-06-24T11:19:40.963Z" agent="Mozilla/5.0 (Windows NT 10.0; Win64; x64) AppleWebKit/537.36 (KHTML, like Gecko) Chrome/126.0.0.0 Safari/537.36" version="24.5.2" etag="I-s2vT1UUFTMPZNpB8Nx" type="github">
  <diagram name="Page-1" id="ndFlclTGQ-r0OjpnFzX9">
    <mxGraphModel>
      <root>
        <mxCell id="0" />
        <mxCell id="1" parent="0" />
      </root>
    </mxGraphModel>
  </diagram>
</mxfile>
